<svg width="336" height="84" viewBox="0 0 336 84" xmlns="http://www.w3.org/2000/svg">
  <!-- deep corporate blue -->
  <defs>
    <linearGradient id="gpbBg" x1="0" y1="0" x2="0" y2="1">
      <stop offset="0" stop-color="#0B3C89"></stop>
      <stop offset="1" stop-color="#0D55B5"></stop>
    </linearGradient>
  </defs>
  <rect width="336" height="84" fill="url(#gpbBg)"></rect>

  <!-- stylized white globe (чистая векторная «сфера» в круге) -->
  <g transform="translate(168,42)" fill="none" stroke="#FFFFFF" stroke-width="3">
    <circle cx="0" cy="0" r="26"></circle>
    <!-- несколько «параллелей» и «меридианов» -->
    <path d="M-24 0c8-10 40-10 48 0c-8 10-40 10-48 0Z"></path>
    <path d="M-21 -8c9-6 33-6 42 0M-21 8c9 6 33 6 42 0"></path>
    <path d="M0 -26c-7 6-12 16-12 26s5 20 12 26M0 -26c7 6 12 16 12 26s-5 20-12 26"></path>
  </g>
</svg>
